HIERARCHY
ROOT Hips
{
  OFFSET -331.093 83.8371 -317.828
  CHANNELS 6 Xposition Yposition Zposition Zrotation Xrotation Yrotation
  JOINT LeftUpLeg
  {
    OFFSET 8.64259 1.95398 -2.38835
    CHANNELS 3 Zrotation Xrotation Yrotation
    JOINT LeftLeg
    {
      OFFSET 43.7702 0 0
      CHANNELS 3 Zrotation Xrotation Yrotation
      JOINT LeftFoot
      {
        OFFSET 40.6238 0 0
        CHANNELS 3 Zrotation Xrotation Yrotation
        JOINT LeftToeBase
        {
          OFFSET 12.7242 0 0
          CHANNELS 3 Zrotation Xrotation Yrotation
          End Site
          {
            OFFSET 0 0 0
          }
        }
      }
    }
  }
  JOINT RightUpLeg
  {
    OFFSET -8.2249 1.95398 -2.59336
    CHANNELS 3 Zrotation Xrotation Yrotation
    JOINT RightLeg
    {
      OFFSET 43.5653 0 0
      CHANNELS 3 Zrotation Xrotation Yrotation
      JOINT RightFoot
      {
        OFFSET 40.6238 0 0
        CHANNELS 3 Zrotation Xrotation Yrotation
        JOINT RightToeBase
        {
          OFFSET 12.7242 0 0
          CHANNELS 3 Zrotation Xrotation Yrotation
          End Site
          {
            OFFSET 0 0 0
          }
        }
      }
    }
  }
  JOINT Spine
  {
    OFFSET 0.165834 0.87714 6.61349
    CHANNELS 3 Zrotation Xrotation Yrotation
    JOINT Spine1
    {
      OFFSET 7.38963 1.71661e-005 0
      CHANNELS 3 Zrotation Xrotation Yrotation
      JOINT Spine2
      {
        OFFSET 11.9445 1.14441e-005 0
        CHANNELS 3 Zrotation Xrotation Yrotation
        JOINT Spine3
        {
          OFFSET 14.7254 4.19617e-005 0
          CHANNELS 3 Zrotation Xrotation Yrotation
          JOINT Spine4
          {
            OFFSET 10.9679 0 0
            CHANNELS 3 Zrotation Xrotation Yrotation
            JOINT RightShoulder
            {
              OFFSET 2.46616 -1.6653 3.69651
              CHANNELS 3 Zrotation Xrotation Yrotation
              JOINT RightArm
              {
                OFFSET 13.0012 0 0
                CHANNELS 3 Zrotation Xrotation Yrotation
                JOINT RightForeArm
                {
                  OFFSET 28.7848 1.62311e-005 0
                  CHANNELS 3 Zrotation Xrotation Yrotation
                  JOINT RightHand
                  {
                    OFFSET 26.5688 1.62095e-005 0
                    CHANNELS 3 Zrotation Xrotation Yrotation
                    End Site
                    {
                      OFFSET 0 0 0
                    }
                  }
                }
              }
            }
            JOINT LeftShoulder
            {
              OFFSET 2.38034 -1.29275 -3.7523
              CHANNELS 3 Zrotation Xrotation Yrotation
              JOINT LeftArm
              {
                OFFSET 16.3182 6.07031e-005 0
                CHANNELS 3 Zrotation Xrotation Yrotation
                JOINT LeftForeArm
                {
                  OFFSET 27.0901 0 0
                  CHANNELS 3 Zrotation Xrotation Yrotation
                  JOINT LeftHand
                  {
                    OFFSET 24.5451 1.51738e-005 0
                    CHANNELS 3 Zrotation Xrotation Yrotation
                    End Site
                    {
                      OFFSET 0 0 0
                    }
                  }
                }
              }
            }
            JOINT Neck
            {
              OFFSET 5.0226 -0.0266342 0
              CHANNELS 3 Zrotation Xrotation Yrotation
              JOINT Head
              {
                OFFSET 6.69364 2.86102e-005 0
                CHANNELS 3 Zrotation Xrotation Yrotation
                End Site
                {
                  OFFSET 0 0 0
                }
              }
            }
          }
        }
      }
    }
  }
}
MOTION
Frames:	17
Frame Time:	0.0416667
-61.8573 99.0936 54.9334 -165.511 -89.1488 -165.245 -175.186 1.42928 91.6463 -8.75561 4.35322 0.124379 63.286 2.36128 2.71184 28.2956 -0.193697 0.778943 171.876 -0.493476 89.5965 -8.75052 -5.77456 -2.09534 64.9629 -2.36866 -1.29301 29.5195 -0.172628 -1.28202 0.105581 5.61725 -89.8685 15.6391 0.274704 0.221672 3.96817 0.284198 0.209356 -18.567 0.195381 0.293985 1.44568 0.19539 0.293989 103.567 19.3666 -70.7254 26.7745 44.8352 -85.4878 1.94952 42.5114 -33.0007 -12.3322 0.287855 -7.02876 -75.131 5.79829 107.307 -7.2942 -54.7534 -97.9785 7.75103 -41.9577 -8.85903 16.8045 -0.470108 -6.61657 10.0362 -2.55735 -0.323512 6.85772 -2.41973 -0.149712 
-61.8889 99.1104 54.9278 -162.489 -89.0797 -162.152 -175.012 1.34261 91.8033 -8.70493 4.25189 0.00589828 63.5583 2.5214 2.6428 27.6898 -0.714465 0.447287 171.89 -0.261827 89.7075 -9.11503 -5.8419 -2.10858 64.7289 -2.23332 -1.22125 30.2223 -0.274339 -1.9065 0.125197 5.61215 -89.8563 15.6492 0.319618 0.239238 3.97831 0.329843 0.224935 -18.5569 0.23294 0.32424 1.45579 0.232945 0.32424 103.573 19.0916 -70.937 26.0979 44.9651 -85.0248 2.01197 42.2641 -33.0332 -12.5098 0.282982 -6.99956 -75.1747 6.01784 107.19 -7.66734 -54.5463 -98.2045 7.76942 -41.6097 -8.8635 16.5786 -0.492897 -6.77976 10.2969 -2.5253 -0.301274 6.42566 -2.42795 -0.628015 
-61.9438 99.1095 54.8917 -169.534 -89.2016 -169.109 -175.084 1.58887 91.8748 -8.93535 4.31993 0.118195 63.6564 2.50493 2.5368 27.6746 -0.718467 0.485204 172.001 -0.22693 89.8511 -9.01746 -5.67556 -2.10676 64.7348 -2.25471 -1.23198 29.8845 -0.248615 -1.78886 0.131268 5.60216 -89.8582 15.6693 0.330691 0.233623 3.99833 0.340652 0.218831 -18.5369 0.245187 0.322208 1.47578 0.245188 0.322202 103.562 19.438 -70.709 26.1122 44.7772 -84.9583 2.11868 42.9131 -32.9515 -12.3684 0.257782 -6.79503 -75.1752 5.82259 107.127 -6.96511 -54.7371 -97.9657 7.99893 -41.9541 -8.34247 16.636 -0.518555 -6.92584 10.9404 -2.54841 -0.0339675 5.71535 -2.52446 -0.906441 
-61.9952 99.1127 54.9147 -172.365 -89.1374 -171.831 -175.05 1.513 92.0153 -8.92985 4.42803 0.177866 63.6458 2.53708 2.63001 27.7879 -0.744233 -0.0538197 172.077 -0.413605 89.991 -8.84831 -5.47235 -2.11129 64.7377 -2.2798 -1.24373 29.7025 -0.192516 -1.39857 0.131887 5.60774 -89.8495 15.658 0.336304 0.250343 3.98709 0.346999 0.235294 -18.5481 0.245517 0.339843 1.46457 0.245522 0.339841 103.584 19.303 -70.6094 26.3151 44.7181 -85.3745 1.81734 42.9126 -32.6157 -12.0593 0.275197 -6.90791 -75.1622 5.8455 107.189 -6.69308 -54.8755 -97.8308 8.15766 -41.693 -8.10949 16.6378 -0.448253 -6.50613 10.8835 -2.57985 -0.0454937 5.85916 -2.55033 -0.85989 
-61.9937 99.1366 54.9471 -164.129 -89.1254 -163.513 -175.001 1.86354 92.129 -9.56786 4.49726 0.147222 63.4412 2.06676 2.45636 28.2876 -0.20667 0.746381 171.997 -0.708329 90.0046 -8.23724 -5.72166 -1.99132 64.415 -2.25847 -1.22659 29.814 -0.229545 -1.66254 0.148959 5.61002 -89.8453 15.6534 0.372121 0.253158 3.9825 0.382899 0.236531 -18.5527 0.278831 0.353298 1.45993 0.278825 0.353284 103.572 19.5094 -70.5208 26.2308 44.6898 -85.3084 1.42366 43.3061 -32.1696 -12.3076 0.257129 -6.7876 -75.1997 5.87609 107.039 -6.30032 -55.0847 -97.4878 8.441 -41.641 -7.74654 16.1035 -0.449665 -6.57766 10.2708 -2.52531 0.0758639 6.52246 -2.53552 -0.917532 
-62.0285 99.1226 55.0153 -166.819 -89.0425 -166.197 -174.89 1.45868 92.1694 -9.04922 4.4738 0.0631801 63.571 2.53257 2.82155 28.0985 -0.577101 -0.355356 171.946 -0.651608 89.9847 -8.6392 -5.79709 -1.95733 64.6275 -2.26997 -1.23821 29.9943 -0.267167 -1.90916 0.149945 5.6223 -89.823 15.6287 0.385261 0.296164 3.95775 0.397918 0.278912 -18.5774 0.278436 0.398264 1.43524 0.278435 0.398252 103.578 19.5037 -70.4601 26.1574 44.792 -85.1415 1.44448 43.1809 -32.3003 -12.4094 0.23073 -6.5809 -75.1748 6.05093 107.199 -6.11085 -55.1101 -97.4871 8.64162 -42.5041 -7.31129 16.2678 -0.481352 -6.75679 10.3715 -2.6734 -0.0985195 6.13199 -2.62815 -0.798413 
-62.0102 99.1149 55.0409 -161.328 -89.0161 -160.725 -174.888 1.4698 92.1415 -9.14896 4.27167 0.0549024 63.7327 2.54751 2.68322 27.5918 -0.81974 0.285933 172.026 -0.600634 89.996 -8.75489 -5.74711 -2.04047 64.6092 -2.24431 -1.22409 30.0827 -0.260922 -1.83679 0.156927 5.62896 -89.8179 15.6187 0.401571 0.303652 3.94782 0.414544 0.285668 -18.5874 0.291746 0.410303 1.42528 0.291746 0.410293 103.566 19.6878 -70.3949 26.0352 44.8765 -84.955 1.26707 43.2525 -32.2452 -12.0809 0.23463 -6.57491 -75.1646 6.2136 107.294 -6.71826 -54.9548 -97.527 8.18021 -42.3787 -8.08817 17.343 -0.445195 -6.4086 10.3444 -2.60894 -0.15455 6.14782 -2.54954 -0.74786 
-61.9904 99.1143 55.0439 -160.157 -89.0609 -159.503 -174.873 1.52441 92.1805 -9.16382 4.62836 0.0257178 63.6029 2.63757 3.03924 27.9292 -0.597343 0.15283 172.059 -0.491559 90.0594 -8.85436 -5.55961 -2.03033 64.653 -2.2609 -1.23368 29.8579 -0.205918 -1.46652 0.158622 5.63101 -89.8114 15.6312 0.408113 0.315278 3.96028 0.421596 0.297002 -18.5749 0.294496 0.423356 1.43777 0.294498 0.423359 103.59 19.509 -70.3236 25.6182 44.9426 -84.7211 1.68512 43.4503 -32.469 -12.031 0.230708 -6.5426 -75.1966 6.32542 107.192 -6.73944 -54.9346 -97.5537 8.27685 -42.1011 -8.01477 16.851 -0.449666 -6.48972 10.0078 -2.81297 -0.600817 6.62676 -2.62333 -0.384422 
-61.9624 99.1447 55.0355 -159.327 -89.1024 -158.657 -174.983 1.81172 92.183 -9.53672 4.46258 0.154015 63.3885 2.03107 2.44994 28.7022 -0.000910979 0.2645 172.059 -0.700495 90.0514 -8.27619 -5.62478 -2.02663 64.3553 -2.22042 -1.20627 30.047 -0.22888 -1.59939 0.160441 5.63156 -89.8161 15.6247 0.409384 0.305746 3.95381 0.422445 0.287431 -18.5814 0.29856 0.414645 1.43128 0.298576 0.41466 103.598 19.4634 -70.2741 25.722 44.9111 -84.9119 2.03313 43.4591 -32.4843 -12.541 0.257726 -6.8238 -75.1603 6.32032 107.347 -6.71961 -54.9518 -97.7566 8.51665 -42.218 -7.70276 16.7373 -0.427127 -6.36944 10.3485 -2.76866 -0.397593 6.17675 -2.62355 -0.390219 
-61.9194 99.1611 55.0028 -150.143 -89.1463 -149.441 -174.995 1.80201 92.1765 -9.27381 4.61052 0.1346 63.0092 1.98457 2.76482 29.0681 0.307558 0.429478 172.101 -0.364845 90.1017 -8.7231 -5.66235 -2.0409 64.2718 -2.07556 -1.13224 30.1646 -0.252979 -1.75721 0.173349 5.63094 -89.8297 15.6428 0.428001 0.274864 3.97187 0.439676 0.25575 -18.5634 0.325595 0.39078 1.44922 0.325597 0.390781 103.592 19.4301 -70.3812 25.2618 45.0602 -84.5768 2.02603 43.6652 -32.6068 -12.2448 0.265035 -6.85594 -75.1375 6.0924 107.371 -6.40899 -55.0643 -97.6004 8.41699 -42.1981 -7.82687 16.2941 -0.391383 -6.20394 10.3679 -2.69474 0.216429 6.01269 -2.73762 -1.04911 
-61.8883 99.1508 55.0105 -148.239 -89.1396 -147.63 -175.023 1.94188 92.0553 -9.60859 4.58055 0.104549 63.2461 1.99514 2.68611 28.6647 0.0489855 0.623642 172.054 -0.632187 89.9635 -8.18617 -5.8769 -2.07305 64.4781 -2.29858 -1.24632 29.6673 -0.240033 -1.78094 0.177114 5.62844 -89.8148 15.6345 0.442968 0.30283 3.96356 0.455857 0.283039 -18.5717 0.331466 0.421951 1.44097 0.331469 0.421955 103.602 19.3874 -70.3179 25.4475 45.0102 -84.7699 1.96902 43.4852 -32.5471 -12.1639 0.258475 -6.79005 -75.1354 6.07421 107.375 -6.44976 -55.0513 -97.6684 8.43209 -42.0174 -7.82746 16.0499 -0.412024 -6.35766 10.3451 -2.75613 0.0603221 5.68284 -2.74693 -0.867125 
-61.8608 99.1303 55.0236 -148.947 -89.238 -148.34 -175.083 1.88763 91.9981 -9.39354 4.10609 0.18067 63.542 2.14435 2.39223 28.1799 -0.368061 0.361523 172.147 -0.451345 90.0115 -8.37006 -5.59299 -2.14465 64.5194 -2.27361 -1.2344 29.6661 -0.187501 -1.36711 0.178055 5.6257 -89.8093 15.6319 0.447603 0.313463 3.96102 0.460956 0.293449 -18.5742 0.332695 0.433485 1.43844 0.332696 0.433489 103.614 19.3128 -70.2713 25.3461 45.1193 -84.7419 1.75404 43.4069 -32.2678 -12.2135 0.273302 -6.91451 -75.1402 6.23826 107.406 -6.837 -55.0004 -97.8954 8.48076 -41.8959 -7.7829 16.8853 -0.396114 -6.17011 10.5306 -2.75272 -0.103404 5.65923 -2.69561 -0.719711 
-61.8048 99.1362 55.0321 -140.483 -89.2691 -139.864 -175.076 2.05148 91.9848 -9.53556 4.80085 0.0939308 63.1578 2.07449 2.96451 28.7962 0.23506 1.02332 172.213 -0.488642 90.0393 -8.1565 -5.68034 -2.2132 64.3658 -2.24037 -1.21213 29.878 -0.19796 -1.39941 0.18957 5.62313 -89.8108 15.6425 0.469577 0.306775 3.97164 0.482625 0.285803 -18.5637 0.355673 0.433718 1.44899 0.355663 0.433711 103.615 19.3036 -70.265 25.3941 45.2029 -84.6224 1.94617 43.1333 -32.5817 -12.4831 0.268106 -6.90233 -75.1051 6.16326 107.533 -6.66963 -55.0536 -98.0489 8.73336 -41.8179 -7.40324 16.5317 -0.393507 -6.1895 10.6661 -2.80039 -0.216869 5.66135 -2.71691 -0.746939 
-61.7704 99.1188 55.0705 -144.678 -89.3275 -144.029 -175.042 1.84149 91.9991 -9.15039 4.36389 0.0919406 63.4688 2.33156 2.74994 28.2989 -0.302217 0.255254 172.168 -0.343345 90.0362 -8.44612 -5.59551 -2.15114 64.4989 -2.24315 -1.21855 29.7717 -0.218256 -1.58416 0.186884 5.62092 -89.8118 15.6421 0.463809 0.305815 3.97116 0.476816 0.285098 -18.5641 0.35046 0.431072 1.44852 0.350449 0.431056 103.638 19.2509 -70.0627 25.4059 45.1432 -84.8958 1.83522 43.4113 -32.2489 -12.2968 0.26761 -6.8762 -75.134 6.21676 107.426 -6.03659 -55.2026 -97.4466 8.77188 -42.465 -7.13211 16.3892 -0.431628 -6.43416 10.8361 -2.8113 -0.127796 5.38627 -2.74898 -0.791335 
-61.7283 99.1313 55.1027 -157.58 -89.2955 -156.915 -174.968 1.70481 92.0339 -9.12557 4.28455 0.0401735 63.7184 2.47081 2.53787 27.9041 -0.582196 0.315928 172.103 -0.447861 89.9896 -8.49044 -5.49586 -2.12617 64.4019 -2.17289 -1.18176 30.0427 -0.21132 -1.4648 0.171246 5.61992 -89.8247 15.6241 0.426499 0.28642 3.95321 0.438692 0.267362 -18.582 0.320698 0.401362 1.4306 0.320701 0.401353 103.609 19.4657 -70.1532 25.5234 45.1663 -84.7745 1.83574 43.0966 -32.3778 -12.4764 0.26566 -6.87168 -75.1094 5.98376 107.456 -6.14206 -55.1712 -97.5469 8.55101 -42.4413 -7.42974 16.7183 -0.425151 -6.35944 10.8118 -2.83042 0.0797894 5.24008 -2.81159 -0.743109 
-61.7083 99.129 55.1256 -163.905 -89.2515 -163.243 -175.035 1.62792 91.9722 -9.16178 4.49368 0.124633 63.7637 2.61538 2.78223 27.8211 -0.642934 0.319937 172.069 -0.56825 89.9655 -8.43783 -5.50489 -2.12651 64.4007 -2.19324 -1.19188 30.1278 -0.22466 -1.54833 0.15859 5.61991 -89.8287 15.6326 0.39947 0.282437 3.96165 0.411518 0.264582 -18.5736 0.296121 0.389444 1.43909 0.296111 0.389433 103.626 19.387 -70.0473 25.5056 44.9953 -84.9217 1.84485 43.0543 -32.6418 -12.5751 0.24736 -6.734 -75.1076 5.96529 107.459 -6.22388 -55.0339 -97.6178 8.46432 -42.2198 -7.50048 16.556 -0.398114 -6.21492 10.6924 -2.77853 0.140696 5.23715 -2.78173 -0.839213 
-61.6261 99.1521 55.1158 -176.783 -89.178 -176.06 -175.034 1.94809 92.0489 -9.79969 4.89765 0.124191 63.1023 1.98985 2.82755 29.1628 0.324296 0.187412 171.977 -0.811951 89.9393 -8.12473 -5.3033 -2.04559 64.3288 -2.23913 -1.21371 29.7475 -0.150828 -1.05812 0.15032 5.62235 -89.8284 15.6287 0.383254 0.285452 3.95774 0.395446 0.26831 -18.5774 0.279742 0.387434 1.43521 0.279744 0.387436 103.642 19.1485 -70.1325 25.0747 45.0879 -84.5678 2.05479 42.9013 -32.8518 -12.5597 0.27621 -6.96189 -75.1462 6.34755 107.416 -6.16815 -54.8312 -97.5422 8.67594 -42.6006 -7.13829 16.7769 -0.426768 -6.36298 10.6088 -2.85174 -0.252424 5.15413 -2.73733 -0.442386 
